<?xml version="1.0" standalone="no"?>
<!DOCTYPE svg PUBLIC "-//W3C//DTD SVG 20010904//EN"
 "http://www.w3.org/TR/2001/REC-SVG-20010904/DTD/svg10.dtd">
<svg version="1.0" xmlns="http://www.w3.org/2000/svg"
 width="616.000000pt" height="405.000000pt" viewBox="0 0 616.000000 405.000000"
 preserveAspectRatio="xMidYMid meet">

<g transform="translate(0.000000,405.000000) scale(0.100000,-0.100000)"
fill="#000000" stroke="none">
<path d="M2547 3272 c-295 -113 -536 -206 -534 -208 1 -1 247 76 545 172 l543
175 192 -61 c105 -34 344 -111 530 -171 187 -61 340 -109 342 -107 5 5 -1057
409 -1070 407 -5 0 -252 -93 -548 -207z"/>
<path d="M2687 2672 l-117 -117 120 -120 c65 -66 125 -121 134 -123 18 -4 56
32 56 54 0 9 -36 53 -79 97 -69 70 -81 79 -95 68 -9 -7 -16 -10 -16 -5 0 4 43
51 95 105 52 53 95 102 95 108 0 28 -22 51 -48 51 -22 0 -52 -25 -145 -118z"/>
<path d="M3116 2718 c-104 -231 -148 -347 -142 -372 7 -30 40 -42 67 -24 22
14 188 388 189 424 0 28 -19 44 -53 44 -25 0 -31 -7 -61 -72z"/>
<path d="M3341 2781 c-7 -5 -13 -21 -13 -36 0 -21 22 -50 98 -127 55 -55 88
-95 75 -88 -21 11 -28 8 -73 -37 -72 -69 -107 -119 -101 -143 7 -25 38 -43 62
-35 9 3 68 57 131 120 l114 116 -110 112 c-60 61 -113 115 -119 119 -13 10
-47 10 -64 -1z"/>
<path d="M1778 1943 c4 -201 5 -209 29 -240 24 -33 25 -33 110 -33 81 0 89 2
115 27 l28 27 0 172 c0 105 4 175 10 179 6 3 10 22 10 41 l0 34 -60 0 -60 0 0
-33 c0 -18 5 -38 10 -43 7 -7 9 -69 8 -165 l-3 -154 -55 0 -55 0 -3 154 c-1
96 1 158 8 165 5 5 10 25 10 43 l0 33 -53 0 -54 0 5 -207z"/>
<path d="M2120 2116 c0 -19 5 -38 10 -41 6 -4 10 -70 10 -165 0 -95 -4 -161
-10 -165 -5 -3 -10 -22 -10 -41 l0 -34 58 0 59 0 -9 57 c-5 31 -8 88 -6 127
l3 71 50 -127 50 -128 48 0 47 0 0 179 c0 98 3 206 6 240 l7 61 -56 0 -57 0 5
-127 6 -128 -52 128 -51 127 -54 0 -54 0 0 -34z"/>
<path d="M2485 1910 l0 -240 50 0 50 0 0 240 0 240 -50 0 -50 0 0 -240z"/>
<path d="M2668 2117 l-28 -32 0 -181 0 -180 28 -27 c26 -25 34 -27 115 -27 86
0 86 0 111 33 18 24 26 46 26 75 l0 42 -40 0 c-35 0 -40 -3 -40 -22 0 -40 -14
-49 -66 -46 l-49 3 0 155 0 155 43 3 c50 4 72 -10 72 -44 0 -21 5 -24 40 -24
l40 0 0 43 c0 36 -6 49 -33 75 -32 31 -36 32 -112 32 -78 -1 -81 -2 -107 -33z"/>
<path d="M2997 2122 l-27 -28 0 -185 0 -185 28 -27 c26 -25 35 -27 112 -27 77
0 86 2 112 27 l28 27 0 179 c0 177 0 179 -26 213 l-26 34 -87 0 c-83 0 -89 -2
-114 -28z m168 -212 l0 -155 -55 0 -55 0 -3 145 c-1 79 0 150 3 158 3 9 20 12
57 10 l53 -3 0 -155z"/>
<path d="M3305 1910 l0 -240 114 0 c111 0 116 1 143 27 l28 27 0 185 0 185
-27 28 c-26 28 -29 28 -142 28 l-116 0 0 -240z m200 0 l0 -155 -52 -3 -53 -3
0 161 0 161 53 -3 52 -3 0 -155z"/>
<path d="M3640 2111 c0 -22 5 -43 10 -46 6 -4 10 -68 10 -160 0 -92 -4 -156
-10 -160 -5 -3 -10 -22 -10 -41 l0 -34 53 0 52 0 0 240 0 240 -52 0 -53 0 0
-39z"/>
<path d="M3805 2108 c8 -53 8 -338 -1 -395 l-6 -43 56 0 56 0 -7 125 c-3 69
-4 125 -1 125 3 0 27 -56 53 -125 l48 -125 48 0 49 0 0 179 c0 98 3 206 6 240
l7 61 -56 0 -57 0 7 -125 c3 -69 4 -125 1 -125 -3 0 -27 56 -53 125 l-48 125
-55 0 -54 0 7 -42z"/>
<path d="M4187 2122 l-27 -28 0 -185 0 -185 28 -27 c26 -25 35 -27 108 -27 77
0 81 1 112 33 32 33 32 33 32 140 l0 107 -65 0 -65 0 0 -40 c0 -34 3 -40 20
-40 19 0 21 -5 18 -57 l-3 -58 -50 0 -50 0 0 155 0 155 50 0 c49 0 50 -1 53
-32 3 -32 5 -33 48 -33 l44 0 0 43 c0 36 -6 49 -33 75 -31 31 -36 32 -113 32
-75 0 -82 -2 -107 -28z"/>
<path d="M2325 1476 c-27 -164 -31 -206 -18 -206 7 0 15 17 19 40 5 30 11 40
25 40 14 0 20 -10 25 -40 4 -24 12 -40 20 -40 9 0 12 9 9 28 -3 15 -12 65 -20
111 -8 46 -15 84 -15 86 0 1 -9 5 -20 8 -16 4 -20 -1 -25 -27z m35 -56 c0 -22
-4 -40 -10 -40 -11 0 -13 39 -4 64 10 26 14 19 14 -24z"/>
<path d="M2464 1495 c-3 -6 -3 -60 -2 -120 2 -76 7 -110 16 -113 9 -3 12 19
13 85 1 93 9 85 26 -27 7 -46 11 -55 31 -58 22 -3 22 -2 22 117 0 101 -2 121
-15 121 -12 0 -15 -17 -16 -87 l-1 -88 -9 60 c-16 116 -18 121 -40 121 -12 0
-23 -5 -25 -11z"/>
<path d="M3005 1501 c-3 -2 -5 -55 -5 -118 l0 -113 40 0 c22 0 40 5 40 10 0 6
-11 10 -25 10 -23 0 -25 3 -25 50 0 47 2 50 25 50 16 0 25 6 25 15 0 9 -10 15
-26 15 -22 0 -25 4 -22 28 2 19 9 28 26 30 12 2 22 7 22 12 0 9 -68 19 -75 11z"/>
<path d="M3263 1503 l-33 -4 0 -115 0 -114 35 0 c19 0 35 5 35 10 0 6 -9 10
-20 10 -17 0 -20 7 -20 50 0 43 3 50 20 50 11 0 20 7 20 15 0 8 -9 15 -20 15
-16 0 -20 7 -20 30 0 23 4 30 20 30 11 0 20 7 20 15 0 8 -1 14 -2 13 -2 0 -18
-3 -35 -5z"/>
<path d="M3372 1498 c-22 -22 -14 -77 19 -123 31 -43 35 -75 12 -82 -7 -3 -15
7 -19 21 -9 35 -24 33 -24 -4 0 -51 65 -63 84 -14 11 29 6 44 -30 99 -22 33
-34 61 -30 71 8 21 30 13 34 -14 4 -26 32 -30 32 -4 0 45 -50 78 -78 50z"/>
<path d="M3962 1494 c-20 -14 -22 -24 -22 -108 0 -97 7 -116 46 -116 37 0 45
22 42 120 -3 80 -6 94 -23 106 -18 12 -24 11 -43 -2z m36 -112 c-4 -107 -22
-112 -26 -8 -3 86 2 116 19 99 5 -5 9 -46 7 -91z"/>
<path d="M4096 1494 c-25 -24 -19 -66 15 -112 29 -40 36 -80 14 -85 -5 -1 -11
8 -13 21 -5 30 -32 29 -32 -2 0 -14 10 -32 22 -40 28 -20 33 -20 52 0 25 24
19 70 -14 116 -32 44 -40 88 -15 88 9 0 15 -9 15 -25 0 -16 6 -25 15 -25 20 0
20 44 -1 64 -8 9 -22 16 -29 16 -7 0 -21 -7 -29 -16z"/>
<path d="M2030 1385 c0 -96 3 -115 15 -115 9 0 15 9 15 25 0 17 5 25 18 25 31
0 42 22 42 86 0 86 -5 94 -51 94 l-39 0 0 -115z m58 20 c-2 -36 -8 -60 -15
-63 -10 -3 -13 14 -13 61 0 35 3 67 7 71 15 15 24 -14 21 -69z"/>
<path d="M2170 1385 l0 -115 40 0 c22 0 40 5 40 10 0 6 -11 10 -25 10 l-25 0
0 105 c0 87 -3 105 -15 105 -12 0 -15 -19 -15 -115z"/>
<path d="M2630 1481 c-5 -11 -10 -54 -10 -96 0 -91 10 -115 49 -115 37 0 41
12 41 115 0 46 -3 90 -6 99 -9 23 -61 21 -74 -3z m48 -93 c-4 -114 -22 -124
-26 -14 -3 84 1 106 18 106 7 0 10 -32 8 -92z"/>
<path d="M2860 1385 l0 -115 33 0 c50 0 57 13 57 115 0 102 -7 115 -57 115
l-33 0 0 -115z m58 -2 c-2 -58 -7 -88 -15 -91 -10 -3 -13 19 -13 87 0 75 3 91
15 91 13 0 15 -14 13 -87z"/>
<path d="M3490 1490 c0 -5 9 -10 20 -10 19 0 20 -7 20 -105 0 -87 3 -105 15
-105 12 0 15 18 15 105 0 98 1 105 20 105 11 0 20 5 20 10 0 6 -25 10 -55 10
-30 0 -55 -4 -55 -10z"/>
<path d="M3650 1404 c0 -111 9 -134 50 -134 41 0 50 23 50 134 0 78 -3 96 -15
96 -11 0 -15 -20 -17 -102 -2 -84 -6 -103 -18 -103 -12 0 -16 19 -18 103 -2
82 -6 102 -17 102 -12 0 -15 -18 -15 -96z"/>
<path d="M3800 1385 l0 -115 33 0 c50 0 57 14 57 108 0 102 -9 122 -55 122
l-35 0 0 -115z m58 -3 c-2 -57 -7 -87 -15 -90 -10 -3 -13 20 -13 92 0 82 2 95
15 89 13 -4 15 -21 13 -91z"/>
<path d="M3794 952 c-528 -235 -681 -302 -693 -302 -6 0 -246 97 -533 215
-287 118 -523 213 -525 212 -1 -2 108 -56 245 -120 136 -63 372 -174 525 -246
153 -72 283 -131 290 -130 7 0 248 119 537 264 289 145 521 264 515 263 -5 0
-168 -70 -361 -156z"/>
</g>
</svg>
